<?xml version="1.0" encoding="UTF-8" standalone="no"?>
<!-- Created with Inkscape (http://www.inkscape.org/) -->

<svg
   version="1.1"
   id="svg2"
   width="900"
   height="487"
   viewBox="0 0 900.00002 487"
   sodipodi:docname="g12.svg"
   inkscape:version="1.2.2 (b0a8486541, 2022-12-01)"
   xmlns:inkscape="http://www.inkscape.org/namespaces/inkscape"
   xmlns:sodipodi="http://sodipodi.sourceforge.net/DTD/sodipodi-0.dtd"
   xmlns="http://www.w3.org/2000/svg"
   xmlns:svg="http://www.w3.org/2000/svg">
  <defs
     id="defs6">
    <linearGradient
       x1="0"
       y1="0"
       x2="1"
       y2="0"
       gradientUnits="userSpaceOnUse"
       gradientTransform="matrix(0,519.59772,519.59772,0,461.86459,-2.3e-5)"
       spreadMethod="pad"
       id="linearGradient30">
      <stop
         style="stop-opacity:1;stop-color:#f5f5f5"
         offset="0"
         id="stop24" />
      <stop
         style="stop-opacity:1;stop-color:#ffffff"
         offset="0.86813091"
         id="stop26" />
      <stop
         style="stop-opacity:1;stop-color:#ffffff"
         offset="1"
         id="stop28" />
    </linearGradient>
    <clipPath
       clipPathUnits="userSpaceOnUse"
       id="clipPath40">
      <path
         d="M 0,519.598 H 923.74 V 0 H 0 Z"
         id="path38" />
    </clipPath>
  </defs>
  <sodipodi:namedview
     id="namedview4"
     pagecolor="#505050"
     bordercolor="#eeeeee"
     borderopacity="1"
     inkscape:showpageshadow="0"
     inkscape:pageopacity="0"
     inkscape:pagecheckerboard="0"
     inkscape:deskcolor="#505050"
     showgrid="false"
     inkscape:zoom="0.80831724"
     inkscape:cx="420.00836"
     inkscape:cy="225.15912"
     inkscape:window-width="1366"
     inkscape:window-height="696"
     inkscape:window-x="0"
     inkscape:window-y="0"
     inkscape:window-maximized="1"
     inkscape:current-layer="g36"
     borderlayer="false"
     showborder="true" />
  <g
     id="g10"
     inkscape:groupmode="layer"
     inkscape:label="Page 1"
     transform="matrix(1.3333333,0,0,-1.3333333,0,692.79732)">
    <g
       id="g34"
       transform="matrix(1.3910977,0,0,1.3910977,-308.67373,-98.549435)">
      <g
         id="g36"
         clip-path="url(#clipPath40)">
        <g
           id="g42"
           transform="translate(626.9395,184.3203)">
          <path
             d="m 0,0 c 0,0 72.52,32.251 70.833,97.319 -1.687,65.068 -70.416,95.327 -117.077,55.154 -46.659,-40.173 -76.858,-6.486 -101.03,27.463 -24.174,33.949 -78.101,76.793 -148.853,56.995 -74.116,-20.739 -96.924,-95.798 -89.582,-145.886 5.273,-35.978 24.56,-66.481 50.84,-89.919 0.855,-0.762 1.729,-1.515 2.626,-2.258 z"
             style="fill:#eaedfb;fill-opacity:1;fill-rule:nonzero;stroke:none;opacity:0.5"
             id="path44" />
        </g>
        <g
           id="g46"
           transform="translate(331.5986,227.5967)">
          <path
             d="M 0,0 -12.616,29.468 73.767,29.324 61.053,-0.102 C 57.717,-7.819 50.101,-12.813 41.7,-12.798 l -22.389,0.037 C 10.898,-12.747 3.31,-7.729 0,0"
             style="fill:#b82729;fill-opacity:1;fill-rule:nonzero;stroke:none"
             id="path48" />
        </g>
        <g
           id="g50"
           transform="translate(303.5605,235.1768)">
          <path
             d="m 0,0 -0.35,-0.33 c -1.737,-1.679 -3.794,-2.843 -5.967,-3.474 l -1.3,3.037 c -3.61,8.404 0.446,17.544 7.975,21.115 C 5.87,14.623 5.715,5.521 0,0"
             style="fill:#b82729;fill-opacity:1;fill-rule:nonzero;stroke:none"
             id="path52" />
        </g>
        <g
           id="g54"
           transform="translate(424.3418,224.9522)">
          <path
             d="m 0,0 -13.929,-32.224 c -1.549,-3.58 -3.671,-6.79 -6.241,-9.54 -0.403,-0.426 -0.819,-0.853 -1.234,-1.257 h -81.643 c -0.427,0.404 -0.831,0.82 -1.234,1.257 -2.615,2.784 -4.782,6.05 -6.342,9.698 l -13.783,32.19 c 3.03,0.987 5.87,2.66 8.25,4.972 5.174,5.006 7.295,11.976 6.341,18.609 l 10.27,-23.975 c 4.478,-10.459 14.726,-17.239 26.096,-17.261 l 22.391,-0.023 c 11.381,-0.022 21.651,6.712 26.163,17.151 l 9.72,22.504 C -15.602,15.972 -13.424,9.687 -8.665,5.096 -6.162,2.672 -3.188,0.966 0,0"
             style="fill:#b82729;fill-opacity:1;fill-rule:nonzero;stroke:none"
             id="path56" />
        </g>
        <g
           id="g58"
           transform="translate(428.335,234.1865)">
          <path
             d="m 0,0 -1.271,-2.93 c -2.338,0.592 -4.551,1.795 -6.415,3.59 L -8.034,0.99 C -13.75,6.521 -13.905,15.633 -8.384,21.357 -0.562,17.933 3.706,8.568 0,0"
             style="fill:#b82729;fill-opacity:1;fill-rule:nonzero;stroke:none"
             id="path60" />
        </g>
        <g
           id="g62"
           transform="translate(405.3652,256.9209)">
          <path
             d="m 0,0 -12.714,-29.426 c -3.336,-7.718 -10.952,-12.711 -19.352,-12.696 l -22.39,0.037 c -8.412,0.014 -16.001,5.031 -19.311,12.761 L -86.383,0.144 Z"
             style="fill:#85151b;fill-opacity:1;fill-rule:nonzero;stroke:none"
             id="path64" />
        </g>
        <g
           id="g66"
           transform="translate(356.0332,290.2754)">
          <path
             d="m 0,0 -19.732,-0.101 c -6.05,-0.034 -10.652,0.472 -13.85,1.494 -8.632,2.873 -14.939,7.16 -18.936,12.929 -4.916,7.262 -7.396,14.366 -7.429,21.281 -0.034,6.969 2.043,13.85 6.229,20.629 2.571,3.917 5.432,6.892 8.598,8.946 5.803,4.803 14.131,7.228 25.006,7.284 l 19.732,0.101 -0.124,23.077 -6.633,-0.035 c -16.028,-0.089 -25.198,-0.493 -27.509,-1.223 -6.522,-0.808 -13.784,-3.569 -21.787,-8.272 -4.421,-2.76 -9.147,-6.992 -14.175,-12.672 -3.66,-4.579 -6.533,-9.427 -8.665,-14.512 l -0.101,19.193 c 3.468,1.729 5.848,5.309 5.825,9.44 -0.022,5.791 -4.748,10.46 -10.539,10.437 -5.792,-0.033 -10.461,-4.747 -10.428,-10.539 0.024,-3.995 2.28,-7.452 5.568,-9.215 l -1.347,-25.658 c -4.916,-3.939 -8.058,-10.012 -8.025,-16.813 0.056,-10.797 8.115,-19.698 18.531,-21.089 0.292,-0.752 0.605,-1.504 0.932,-2.235 6.33,-14.198 16.689,-24.411 31.045,-30.64 6.667,-3.379 16.88,-5.029 30.674,-4.951 l 17.251,0.09 z"
             style="fill:#b82729;fill-opacity:1;fill-rule:nonzero;stroke:none"
             id="path68" />
        </g>
        <g
           id="g70"
           transform="translate(458.3721,343.8701)">
          <path
             d="m 0,0 -1.604,25.646 c 3.277,1.785 5.488,5.264 5.465,9.26 -0.022,5.791 -4.748,10.461 -10.539,10.439 -5.792,-0.034 -10.461,-4.759 -10.426,-10.539 0.022,-4.143 2.435,-7.701 5.925,-9.384 l 0.102,-19.193 c -2.178,5.074 -5.108,9.877 -8.812,14.422 -5.028,5.624 -9.775,9.811 -14.231,12.516 -8.16,4.624 -15.478,7.307 -21.954,8.036 -2.358,0.718 -11.538,1.022 -27.522,0.943 l -6.644,-0.034 0.124,-23.077 19.832,0.102 c 10.808,0.055 19.137,-2.268 24.996,-7.027 3.187,-2.008 6.117,-4.961 8.766,-8.844 4.265,-6.745 6.409,-13.592 6.454,-20.562 0.033,-6.914 -2.369,-14.053 -7.229,-21.371 -3.962,-5.791 -10.259,-10.157 -18.867,-13.109 -3.232,-1.067 -7.812,-1.617 -13.738,-1.65 l -19.832,-0.101 0.111,-23.054 17.285,0.09 c 13.772,0.067 23.975,1.829 30.608,5.263 14.299,6.387 24.546,16.702 30.731,30.967 0.348,0.831 0.674,1.661 0.987,2.503 -0.021,-0.09 -0.055,-0.168 -0.089,-0.258 10.405,1.504 18.362,10.484 18.306,21.292 C 8.172,-9.922 4.961,-3.895 0,0"
             style="fill:#b82729;fill-opacity:1;fill-rule:nonzero;stroke:none"
             id="path72" />
        </g>
        <g
           id="g74"
           transform="translate(346.1709,304.6778)">
          <path
             d="M 0,0 C 0.12,3.033 7.112,9.502 15.409,9.174 23.705,8.845 30.164,1.843 30.044,-1.19 29.924,-4.224 23.318,-0.924 15.021,-0.595 6.726,-0.267 -0.12,-3.032 0,0"
             style="fill:#b82729;fill-opacity:1;fill-rule:nonzero;stroke:none"
             id="path76" />
        </g>
        <g
           id="g78"
           transform="translate(328.7051,350.4619)">
          <path
             d="m 0,0 c 3.051,-1.325 6.09,-2.778 9.042,-4.534 2.947,-1.755 5.817,-3.827 8.376,-6.395 l 0.001,-10e-4 0.061,-0.065 c 1.189,-1.243 1.144,-3.215 -0.1,-4.403 -0.335,-0.32 -0.736,-0.555 -1.147,-0.697 -2.929,-0.998 -5.806,-2.2 -8.52,-3.662 -2.709,-1.464 -5.273,-3.185 -7.451,-5.28 l -0.026,-0.025 c -0.758,-0.73 -1.965,-0.707 -2.695,0.052 -0.666,0.694 -0.704,1.761 -0.127,2.496 2.158,2.757 4.76,5.08 7.518,7.116 2.766,2.035 5.707,3.78 8.756,5.324 l -1.185,-5.164 v 10e-4 c -3.535,4.725 -8.761,8.506 -14.252,11.857 -0.9,0.547 -1.188,1.72 -0.641,2.619 C -1.89,0.063 -0.86,0.372 0,0"
             style="fill:#b82729;fill-opacity:1;fill-rule:nonzero;stroke:none"
             id="path80" />
        </g>
        <g
           id="g82"
           transform="translate(394.4814,350.209)">
          <path
             d="m 0,0 c -3.146,-1.079 -6.291,-2.287 -9.372,-3.804 -3.077,-1.516 -6.102,-3.354 -8.856,-5.713 h -10e-4 l -0.066,-0.06 c -1.283,-1.146 -1.394,-3.114 -0.249,-4.398 0.309,-0.345 0.69,-0.61 1.089,-0.785 2.841,-1.226 5.613,-2.652 8.203,-4.324 2.585,-1.674 5.004,-3.593 7.01,-5.853 l 0.024,-0.028 c 0.698,-0.787 1.903,-0.859 2.691,-0.16 0.718,0.638 0.84,1.698 0.324,2.478 -1.934,2.918 -4.344,5.44 -6.932,7.688 -2.596,2.247 -5.389,4.22 -8.307,6 l 0.772,-5.242 10e-4,0.001 c 3.898,4.43 9.406,7.786 15.146,10.693 0.94,0.473 1.319,1.619 0.845,2.561 C 1.89,-0.086 0.888,0.303 0,0"
             style="fill:#b82729;fill-opacity:1;fill-rule:nonzero;stroke:none"
             id="path84" />
        </g>
        <g
           id="g86"
           transform="translate(476.9287,272.3213)">
          <path
             d="m 0,0 -35.902,-37.135 c -3.736,-3.862 -9.112,-5.191 -13.963,-3.929 -2.338,0.591 -4.551,1.794 -6.414,3.589 l -0.349,0.33 c -5.716,5.532 -5.871,14.643 -0.35,20.368 l 0.01,0.009 35.893,37.135 c 5.54,5.725 14.661,5.87 20.377,0.339 l 0.349,-0.329 C 5.376,14.846 5.531,5.725 0,0"
             style="fill:#ffffff;fill-opacity:1;fill-rule:nonzero;stroke:none"
             id="path88" />
        </g>
        <g
           id="g90"
           transform="translate(476.9287,272.3213)">
          <path
             d="m 0,0 -35.902,-37.135 c -3.736,-3.862 -9.112,-5.191 -13.963,-3.929 -2.338,0.591 -4.551,1.794 -6.414,3.589 l -0.349,0.33 c -5.716,5.532 -5.871,14.643 -0.35,20.368 l 0.01,0.009 35.893,37.135 c 5.54,5.725 14.661,5.87 20.377,0.339 l 0.349,-0.329 C 5.376,14.846 5.531,5.725 0,0"
             style="fill:#b82729;fill-opacity:1;fill-rule:nonzero;stroke:none"
             id="path92" />
        </g>
        <g
           id="g94"
           transform="translate(303.5605,235.1768)">
          <path
             d="m 0,0 -0.35,-0.33 c -1.737,-1.679 -3.794,-2.843 -5.967,-3.474 -4.968,-1.455 -10.557,-0.175 -14.41,3.814 l -35.892,37.135 c -5.53,5.724 -5.376,14.845 0.34,20.376 l 0.349,0.33 c 5.725,5.531 14.846,5.385 20.376,-0.339 L 0.339,20.377 c 0.01,-0.01 0.019,-0.02 0.019,-0.029 C 5.87,14.623 5.715,5.521 0,0"
             style="fill:#ffffff;fill-opacity:1;fill-rule:nonzero;stroke:none"
             id="path96" />
        </g>
        <g
           id="g98"
           transform="translate(303.5605,235.1768)">
          <path
             d="m 0,0 -0.35,-0.33 c -1.737,-1.679 -3.794,-2.843 -5.967,-3.474 -4.968,-1.455 -10.557,-0.175 -14.41,3.814 l -35.892,37.135 c -5.53,5.724 -5.376,14.845 0.34,20.376 l 0.349,0.33 c 5.725,5.531 14.846,5.385 20.376,-0.339 L 0.339,20.377 c 0.01,-0.01 0.019,-0.02 0.019,-0.029 C 5.87,14.623 5.715,5.521 0,0"
             style="fill:#b82729;fill-opacity:1;fill-rule:nonzero;stroke:none"
             id="path100" />
        </g>
        <g
           id="g102"
           transform="translate(274.9453,246.8135)"
           style="fill:#333333">
          <path
             d="m 0,0 c -4.043,-1.513 -8.545,0.538 -10.057,4.58 l -21.529,57.541 c -1.512,4.041 0.538,8.544 4.58,10.057 4.042,1.511 8.545,-0.539 10.057,-4.58 L 4.58,10.057 C 6.092,6.015 4.042,1.513 0,0"
             style="fill:#333333;fill-opacity:1;fill-rule:nonzero;stroke:none"
             id="path104" />
        </g>
        <g
           id="g106"
           transform="translate(256.8652,346.7744)"
           style="fill:#333333">
          <path
             d="m 0,0 -9.381,-0.747 4.878,-13.038 c 1.674,-4.475 -0.596,-9.46 -5.071,-11.135 -4.476,-1.674 -9.461,0.597 -11.135,5.071 l -6.612,17.673 -7.652,-0.609 0.028,-15.235 c 0.013,-7.482 4.939,-14.068 12.114,-16.195 l 19.101,-5.662 9.479,13.494 c 3.408,4.852 3.597,11.268 0.479,16.31 z"
             style="fill:#333333;fill-opacity:1;fill-rule:nonzero;stroke:none"
             id="path108" />
        </g>
        <g
           id="g110"
           transform="translate(428.1914,218.0137)">
          <path
             d="m 0,0 h -11.904 c -17.783,0 -32.2,-14.417 -32.2,-32.2 v -3.255 H 32.2 V -32.2 C 32.2,-14.417 17.784,0 0,0"
             style="fill:#85151b;fill-opacity:1;fill-rule:nonzero;stroke:none"
             id="path112" />
        </g>
        <g
           id="g114"
           transform="translate(441.6436,181.9277)">
          <path
             d="m 0,0 c -0.348,0 -0.63,0.283 -0.63,0.631 v 3.255 c 0,15.803 -11.799,29.26 -27.445,31.302 -0.345,0.044 -0.589,0.361 -0.544,0.706 0.045,0.344 0.373,0.585 0.706,0.543 C -11.641,34.314 0.63,20.319 0.63,3.886 V 0.631 C 0.63,0.283 0.348,0 0,0"
             style="fill:#000000;fill-opacity:1;fill-rule:nonzero;stroke:none"
             id="path116" />
        </g>
        <g
           id="g118"
           transform="translate(384.7168,183.1885)">
          <path
             d="m 0,0 h 31.876 v 2.625 c 0,11.334 -6.099,21.812 -15.938,27.432 C 6.099,24.437 0,13.959 0,2.625 Z M 32.506,-1.261 H -0.63 c -0.348,0 -0.63,0.283 -0.63,0.631 v 3.255 c 0,11.908 6.473,22.908 16.892,28.705 0.189,0.107 0.423,0.107 0.612,0 C 26.663,25.532 33.136,14.533 33.136,2.625 V -0.63 c 0,-0.348 -0.282,-0.631 -0.63,-0.631"
             style="fill:#000000;fill-opacity:1;fill-rule:nonzero;stroke:none"
             id="path120" />
        </g>
        <g
           id="g122"
           transform="translate(502.2598,313.8428)"
           style="fill:#333333">
          <path
             d="m 0,0 c -3.771,-2.178 -8.594,-0.885 -10.771,2.887 -2.177,3.77 -0.885,8.592 2.886,10.77 3.772,2.178 8.594,0.886 10.772,-2.886 C 5.063,7 3.771,2.178 0,0 m 15.193,6.79 v 0.038 0.039 c 0,2.415 1.289,4.648 3.381,5.856 0.992,0.572 1.332,1.84 0.76,2.832 l -4.081,7.068 c -0.573,0.991 -1.841,1.331 -2.832,0.759 l -0.152,-0.088 c -2.008,-1.159 -4.49,-1.169 -6.485,0.012 -0.107,0.062 -0.215,0.126 -0.323,0.186 -2.024,1.14 -3.249,3.31 -3.249,5.632 v 0.152 c 0,1.145 -0.928,2.073 -2.072,2.073 h -8.163 c -1.145,0 -2.073,-0.928 -2.073,-2.073 v -0.174 c 0,-2.324 -1.244,-4.471 -3.263,-5.619 -0.076,-0.042 -0.151,-0.085 -0.225,-0.129 -2.031,-1.185 -4.53,-1.237 -6.568,-0.06 l -0.153,0.088 c -0.991,0.572 -2.259,0.232 -2.832,-0.759 l -4.081,-7.069 c -0.572,-0.991 -0.232,-2.259 0.759,-2.831 l 0.001,-0.001 c 2.092,-1.208 3.381,-3.44 3.381,-5.855 V 6.828 6.79 c 0,-2.415 -1.288,-4.646 -3.38,-5.854 l -0.002,-0.001 c -0.991,-0.573 -1.331,-1.84 -0.759,-2.832 l 4.081,-7.069 c 0.573,-0.991 1.84,-1.331 2.832,-0.759 l 0.153,0.088 c 2.007,1.159 4.488,1.169 6.484,-0.01 0.107,-0.064 0.215,-0.126 0.323,-0.188 2.024,-1.14 3.249,-3.31 3.249,-5.632 v -0.151 c 0,-1.146 0.928,-2.073 2.073,-2.073 H 0.14 c 1.144,0 2.072,0.927 2.072,2.073 v 0.151 c 0,2.323 1.225,4.492 3.249,5.632 0.108,0.062 0.216,0.124 0.323,0.188 1.995,1.179 4.477,1.169 6.485,0.01 l 0.152,-0.088 c 0.991,-0.572 2.259,-0.232 2.832,0.759 l 4.081,7.069 c 0.572,0.991 0.232,2.259 -0.759,2.832 L 18.574,0.936 C 16.482,2.143 15.193,4.375 15.193,6.79"
             style="fill:#333333;fill-opacity:1;fill-rule:nonzero;stroke:none"
             id="path124" />
        </g>
        <g
           id="g126"
           transform="translate(557.0605,379.9649)"
           style="fill:#eaedfb;fill-opacity:1;opacity:0.5">
          <path
             d="m 0,0 c -2.885,-1.666 -6.575,-0.678 -8.241,2.208 -1.665,2.886 -0.677,6.575 2.209,8.241 2.885,1.666 6.575,0.677 8.241,-2.208 C 3.875,5.355 2.886,1.665 0,0 m 11.625,5.194 v 0.031 0.029 c 0,1.848 0.986,3.556 2.587,4.48 0.759,0.438 1.018,1.408 0.581,2.166 l -3.123,5.409 c -0.438,0.758 -1.408,1.018 -2.166,0.581 L 9.387,17.822 C 7.851,16.936 5.952,16.928 4.426,17.831 4.344,17.88 4.261,17.928 4.178,17.974 2.63,18.846 1.692,20.506 1.692,22.283 v 0.116 c 0,0.876 -0.71,1.586 -1.586,1.586 h -6.245 c -0.876,0 -1.586,-0.71 -1.586,-1.586 v -0.133 c 0,-1.778 -0.951,-3.421 -2.497,-4.298 -0.057,-0.033 -0.114,-0.066 -0.172,-0.099 -1.553,-0.908 -3.465,-0.947 -5.025,-0.047 l -0.116,0.068 c -0.759,0.437 -1.73,0.177 -2.167,-0.581 L -20.825,11.9 c -0.438,-0.758 -0.178,-1.728 0.581,-2.166 l 0.001,-10e-4 c 1.6,-0.923 2.586,-2.631 2.586,-4.479 V 5.225 5.194 c 0,-1.847 -0.986,-3.554 -2.585,-4.478 l -0.002,-0.001 c -0.759,-0.439 -1.019,-1.408 -0.581,-2.167 l 3.123,-5.408 c 0.438,-0.759 1.408,-1.019 2.166,-0.581 l 0.117,0.067 c 1.536,0.888 3.435,0.895 4.961,-0.008 0.082,-0.049 0.165,-0.097 0.248,-0.143 1.548,-0.872 2.485,-2.533 2.485,-4.309 v -0.116 c 0,-0.876 0.71,-1.586 1.586,-1.586 h 6.245 c 0.876,0 1.586,0.71 1.586,1.586 v 0.116 c 0,1.777 0.938,3.437 2.486,4.309 0.083,0.046 0.166,0.094 0.248,0.143 1.526,0.903 3.425,0.896 4.961,0.009 L 9.504,-7.44 c 0.758,-0.439 1.728,-0.179 2.166,0.58 l 3.123,5.408 c 0.437,0.759 0.178,1.728 -0.581,2.167 h -10e-4 c -1.6,0.924 -2.586,2.632 -2.586,4.479"
             style="fill:#eaedfb;fill-opacity:1;fill-rule:nonzero;stroke:none"
             id="path128" />
        </g>
        <g
           id="g130"
           transform="translate(447.4912,429.126)"
           style="fill:#eaedfb;fill-opacity:1;opacity:0.5">
          <path
             d="m 0,0 c -1.816,-1.049 -4.14,-0.426 -5.188,1.391 -1.049,1.816 -0.427,4.139 1.39,5.188 1.817,1.049 4.14,0.427 5.189,-1.39 C 2.439,3.372 1.817,1.049 0,0 M 7.319,3.271 V 3.29 3.309 c 0,1.163 0.621,2.239 1.629,2.82 0.478,0.276 0.642,0.887 0.365,1.364 L 7.348,10.898 C 7.072,11.376 6.461,11.54 5.983,11.264 L 5.91,11.222 C 4.943,10.663 3.748,10.658 2.786,11.228 2.734,11.258 2.683,11.288 2.631,11.317 1.655,11.866 1.065,12.911 1.065,14.03 v 0.074 c 0,0.551 -0.447,0.999 -0.998,0.999 h -3.932 c -0.552,0 -0.998,-0.448 -0.998,-0.999 V 14.02 c 0,-1.12 -0.6,-2.154 -1.573,-2.707 -0.036,-0.02 -0.072,-0.041 -0.108,-0.062 -0.978,-0.571 -2.183,-0.597 -3.164,-0.029 l -0.073,0.042 c -0.478,0.276 -1.089,0.112 -1.365,-0.366 l -1.965,-3.405 c -0.277,-0.477 -0.113,-1.088 0.365,-1.364 h 0.001 c 1.007,-0.582 1.628,-1.657 1.628,-2.82 V 3.29 3.271 c 0,-1.164 -0.621,-2.238 -1.628,-2.82 L -12.746,0.45 c -0.478,-0.275 -0.642,-0.887 -0.365,-1.364 l 1.965,-3.405 c 0.276,-0.478 0.887,-0.641 1.365,-0.366 l 0.073,0.042 c 0.967,0.559 2.162,0.564 3.124,-0.004 0.052,-0.031 0.104,-0.061 0.155,-0.09 0.976,-0.549 1.566,-1.595 1.566,-2.713 v -0.073 c 0,-0.552 0.446,-0.999 0.998,-0.999 h 3.932 c 0.551,0 0.998,0.447 0.998,0.999 v 0.073 c 0,1.118 0.59,2.164 1.566,2.713 0.052,0.029 0.103,0.059 0.155,0.09 0.962,0.568 2.157,0.563 3.124,0.005 l 0.073,-0.043 c 0.478,-0.275 1.089,-0.112 1.365,0.367 l 1.965,3.404 C 9.59,-0.437 9.426,0.175 8.948,0.45 H 8.947 C 7.939,1.032 7.319,2.107 7.319,3.271"
             style="fill:#eaedfb;fill-opacity:1;fill-rule:nonzero;stroke:none"
             id="path132" />
        </g>
        <g
           id="g134"
           transform="translate(637.6738,232.0645)">
          <path
             d="m 0,0 h 31.454 c 4.309,0 8.186,2.621 9.79,6.62 l 27.485,68.478 c 2.595,6.466 -2.167,13.509 -9.136,13.509 h -138.68 c -4.309,0 -8.185,-2.621 -9.79,-6.62 L -115.972,14.479 C -118.754,7.548 -113.65,0 -106.182,0 h 72.658 z"
             style="fill:#b82729;fill-opacity:1;fill-rule:nonzero;stroke:none"
             id="path136" />
        </g>
        <g
           id="g138"
           transform="translate(611.0205,275.9629)">
          <path
             d="m 0,0 h 9.061 c 3.807,0 7.127,-2.588 8.058,-6.28 L 36.974,-85.102 H 9.422 L -8.092,-10.201 C -9.311,-4.988 -5.354,0 0,0"
             style="fill:#b82729;fill-opacity:1;fill-rule:nonzero;stroke:none"
             id="path140" />
        </g>
        <g
           id="g142"
           transform="translate(673.1484,182.5586)">
          <path
             d="m 0,0 h -81.31 c 0,4.585 3.717,8.303 8.303,8.303 H -8.304 C -3.718,8.303 0,4.585 0,0"
             style="fill:#49597d;fill-opacity:1;fill-rule:nonzero;stroke:none"
             id="path144" />
        </g>
        <g
           id="g146"
           transform="translate(629.4385,269.6826)">
          <path
             d="m 0,0 c -0.93,3.692 -4.25,6.28 -8.058,6.28 h -10.36 -5.312 c -6.004,0 -10.442,-5.594 -9.075,-11.441 l 17.224,-73.66 h 6.585 l -17.514,74.9 c -0.052,0.227 -0.095,0.452 -0.13,0.678 -0.656,4.389 2.978,8.264 7.416,8.264 h 0.806 6.936 3.424 c 3.235,0 6.046,-2.191 6.836,-5.329 l 9.399,-37.31 h 1.299 z"
             style="fill:#000000;fill-opacity:1;fill-rule:nonzero;stroke:none"
             id="path148" />
        </g>
        <g
           id="g150"
           transform="translate(609.4678,233.2461)">
          <path
             d="m 0,0 h -78.543 c -6.58,0 -11.517,6.384 -9.464,12.636 0.072,0.22 0.153,0.441 0.241,0.661 l 27.095,67.509 c 1.605,3.999 5.482,6.62 9.79,6.62 h -9.439 c -4.06,0 -7.712,-2.47 -9.224,-6.238 L -97.129,12.46 c -2.621,-6.53 2.188,-13.642 9.225,-13.642 h 9.928 -0.001 H 0 Z"
             style="fill:#000000;fill-opacity:1;fill-rule:nonzero;stroke:none"
             id="path152" />
        </g>
        <g
           id="g154"
           transform="translate(637.7852,233.2461)">
          <path
             d="m 0,0 v -1.182 h 31.343 c 1.721,0 3.371,0.424 4.837,1.182 z"
             style="fill:#000000;fill-opacity:1;fill-rule:nonzero;stroke:none"
             id="path156" />
        </g>
        <g
           id="g158"
           transform="translate(669.0986,189.6787)">
          <path
             d="m 0,0 c -1.245,0.746 -2.697,1.183 -4.254,1.183 h -64.703 -9.748 c -4.586,0 -8.304,-3.718 -8.304,-8.303 h 9.749 c 0,0.869 0.134,1.708 0.383,2.495 0.888,2.807 3.613,4.625 6.557,4.625 z"
             style="fill:#000000;fill-opacity:1;fill-rule:nonzero;stroke:none"
             id="path160" />
        </g>
        <path
           d="m 538.19,187.839 h -23.687 v -5.28 h 23.687 z"
           style="fill:#000000;fill-opacity:1;fill-rule:nonzero;stroke:none"
           id="path162" />
        <path
           d="m 514.504,187.839 h -39.74 v -5.28 h 39.74 z"
           style="fill:#6859b2;fill-opacity:1;fill-rule:nonzero;stroke:none"
           id="path164" />
        <path
           d="M 500.407,195.903 H 488.72 v -8.064 h 11.687 z"
           style="fill:#6859b2;fill-opacity:1;fill-rule:nonzero;stroke:none"
           id="path166" />
        <path
           d="m 488.721,195.903 h -11.687 v -8.064 h 11.687 z"
           style="fill:#6859b2;fill-opacity:1;fill-rule:nonzero;stroke:none"
           id="path168" />
        <path
           d="m 535.241,195.903 h -23.146 v -8.064 h 23.146 z"
           style="fill:#000000;fill-opacity:1;fill-rule:nonzero;stroke:none"
           id="path170" />
        <path
           d="m 512.095,195.903 h -11.688 v -8.064 h 11.688 z"
           style="fill:#6859b2;fill-opacity:1;fill-rule:nonzero;stroke:none"
           id="path172" />
        <g
           id="g174"
           transform="translate(488.7207,187.209)">
          <path
             d="m 0,0 c -0.348,0 -0.63,0.282 -0.63,0.63 v 8.063 c 0,0.348 0.282,0.631 0.63,0.631 0.348,0 0.63,-0.283 0.63,-0.631 V 0.63 C 0.63,0.282 0.348,0 0,0"
             style="fill:#000000;fill-opacity:1;fill-rule:nonzero;stroke:none"
             id="path176" />
        </g>
        <g
           id="g178"
           transform="translate(500.4082,187.209)">
          <path
             d="m 0,0 c -0.348,0 -0.63,0.282 -0.63,0.63 v 8.063 c 0,0.348 0.282,0.631 0.63,0.631 0.348,0 0.63,-0.283 0.63,-0.631 V 0.63 C 0.63,0.282 0.348,0 0,0"
             style="fill:#000000;fill-opacity:1;fill-rule:nonzero;stroke:none"
             id="path180" />
        </g>
        <g
           id="g182"
           transform="translate(512.0947,187.209)">
          <path
             d="m 0,0 h -35.062 c -0.347,0 -0.629,0.282 -0.629,0.63 0,0.348 0.282,0.63 0.629,0.63 H 0 C 0.348,1.26 0.629,0.978 0.629,0.63 0.629,0.282 0.348,0 0,0"
             style="fill:#000000;fill-opacity:1;fill-rule:nonzero;stroke:none"
             id="path184" />
        </g>
        <g
           id="g186"
           transform="translate(697.8018,182.5596)">
          <path
             d="m 0,0 c 0,-0.348 -0.281,-0.628 -0.629,-0.628 h -443.424 c -0.347,0 -0.639,0.28 -0.639,0.628 0,0.348 0.292,0.629 0.639,0.629 H -0.629 C -0.281,0.629 0,0.348 0,0"
             style="fill:#000000;fill-opacity:1;fill-rule:nonzero;stroke:none"
             id="path188" />
        </g>
        <g
           id="g312"
           transform="translate(604.3818,402.001)">
          <path
             d="m 0,0 h 11.487 v -2.513 h -7.66 v -1.256 h 7.66 V -6.04 h -7.66 v -1.256 h 7.66 V -9.815 H 0 Z"
             style="fill:#1a1a1a;fill-opacity:1;fill-rule:nonzero;stroke:none"
             id="path314" />
        </g>
        <g
           id="g316"
           transform="translate(622.0244,402.0147)">
          <path
             d="m 0,0 v -6.704 h 7.661 v -3.11 H -3.826 V 0 Z"
             style="fill:#1a1a1a;fill-opacity:1;fill-rule:nonzero;stroke:none"
             id="path318" />
        </g>
        <g
           id="g320"
           transform="translate(635.1035,402.0147)">
          <path
             d="m 0,0 v -6.704 h 7.661 v -3.11 H -3.827 V 0 Z"
             style="fill:#1a1a1a;fill-opacity:1;fill-rule:nonzero;stroke:none"
             id="path322" />
        </g>
        <g
           id="g324"
           transform="translate(656.7412,396.2676)">
          <path
             d="m 0,0 c -0.241,-3.315 -3.147,-4.309 -6.683,-4.309 -3.68,0.007 -6.718,1.074 -6.704,4.79 v 0.716 c -0.014,3.711 3.024,4.777 6.704,4.791 C -3.147,5.981 -0.241,4.988 0,1.68 H -3.922 C -4.279,2.644 -5.368,2.87 -6.683,2.87 -8.245,2.848 -9.574,2.57 -9.553,0.957 V 0.716 c -0.021,-1.6 1.308,-1.892 2.87,-1.913 1.315,0 2.411,0.233 2.761,1.197 z"
             style="fill:#1a1a1a;fill-opacity:1;fill-rule:nonzero;stroke:none"
             id="path326" />
        </g>
        <g
           id="g328"
           transform="translate(667.5557,397.2315)">
          <path
             d="M 0,0 C 0.021,1.6 -1.307,1.892 -2.87,1.913 -4.44,1.892 -5.769,1.6 -5.747,0 v -0.241 c -0.022,-1.607 1.307,-1.899 2.877,-1.92 1.563,0.021 2.891,0.313 2.87,1.92 z m 3.827,0.233 v -0.715 c 0.014,-3.709 -3.009,-4.784 -6.697,-4.79 -3.695,0.006 -6.719,1.081 -6.704,4.79 v 0.715 c -0.015,3.718 3.009,4.785 6.704,4.791 3.695,0 6.697,-1.08 6.697,-4.791"
             style="fill:#1a1a1a;fill-opacity:1;fill-rule:nonzero;stroke:none"
             id="path330" />
        </g>
        <g
           id="g332"
           transform="translate(680.8311,398.8897)">
          <path
             d="M 0,0 H -4.191 V -3.594 H 0 c 0.993,0 1.556,0.811 1.556,1.797 C 1.556,-0.804 0.993,0 0,0 M 0.716,3.111 C 3.411,3.147 5.411,0.884 5.39,-1.797 5.411,-4.463 3.411,-6.741 0.716,-6.704 h -8.735 v 9.815 z"
             style="fill:#1a1a1a;fill-opacity:1;fill-rule:nonzero;stroke:none"
             id="path334" />
        </g>
        <g
           id="g336"
           transform="translate(687.6514,402.001)">
          <path
             d="M 0,0 H 11.487 V -2.513 H 3.826 v -1.256 h 7.661 V -6.04 H 3.826 v -1.256 h 7.661 V -9.815 H 0 Z"
             style="fill:#1a1a1a;fill-opacity:1;fill-rule:nonzero;stroke:none"
             id="path338" />
        </g>
        <g
           id="g340"
           transform="translate(615.5283,435.793)">
          <path
             d="m 0,0 c -1.801,-0.307 -3.815,-1.301 -6.044,-2.981 -3.401,-3.042 -5.102,-6.711 -5.102,-11.006 0,-1.989 0.374,-3.863 1.121,-5.623 1.533,-3.523 4.075,-6.058 7.624,-7.606 1.587,-0.8 4.029,-1.2 7.324,-1.2 h 12.888 v 5.604 H 4.282 c -1.788,0 -3.195,0.232 -4.222,0.7 -0.934,0.333 -1.934,1.013 -3.001,2.041 -1.628,1.907 -2.442,3.949 -2.442,6.123 0,0.627 0.1,1.374 0.3,2.242 0.907,2.561 2.214,4.289 3.923,5.183 1.253,0.893 3.095,1.34 5.522,1.34 H 17.811 V 0.421 H 5.183 C 2.647,0.421 0.921,0.28 0,0"
             style="fill:#c1272d;fill-opacity:1;fill-rule:nonzero;stroke:none"
             id="path342" />
        </g>
        <path
           d="m 618.27,419.023 h 15.069 v 5.543 H 618.27 Z"
           style="fill:#c1272d;fill-opacity:1;fill-rule:nonzero;stroke:none"
           id="path344" />
        <g
           id="g346"
           transform="translate(646.5859,414.2403)">
          <path
             d="m 0,0 c -2.92,1.735 -4.38,4.508 -4.38,8.323 v 13.632 h -5.806 V 8.984 c 0,-2.558 0.24,-4.528 0.721,-5.9 0.561,-1.814 1.635,-3.617 3.223,-5.403 1.225,-1.19 2.148,-1.938 2.761,-2.244 2.2,-1.533 5.128,-2.3 8.785,-2.3 h 3.577 v 5.602 H 5.101 C 2.98,-1.261 1.281,-0.84 0,0"
             style="fill:#c1272d;fill-opacity:1;fill-rule:nonzero;stroke:none"
             id="path348" />
        </g>
        <g
           id="g350"
           transform="translate(667.4736,435.9522)">
          <path
             d="m 0,0 c -1.588,-0.187 -3.354,-0.848 -5.304,-1.981 -1.078,-0.665 -2.232,-1.687 -3.462,-3.06 -2.16,-2.682 -3.242,-5.73 -3.242,-9.147 0,-2.001 0.386,-3.887 1.162,-5.662 1.52,-3.458 4.023,-5.952 7.504,-7.484 1.615,-0.827 4.094,-1.241 7.444,-1.241 h 4.194 v 5.602 H 3.501 c -1.468,0 -2.586,0.127 -3.361,0.382 -2.094,0.708 -3.621,1.759 -4.584,3.163 -1.186,1.771 -1.779,3.501 -1.779,5.18 0,1.695 0.513,3.362 1.54,5.006 0.628,0.947 1.329,1.667 2.101,2.16 1.416,1.162 3.441,1.739 6.083,1.739 H 8.296 V 0.263 H 6.685 C 2.789,0.263 0.561,0.176 0,0"
             style="fill:#c1272d;fill-opacity:1;fill-rule:nonzero;stroke:none"
             id="path352" />
        </g>
        <g
           id="g354"
           transform="translate(695.8965,430.9112)">
          <path
             d="m 0,0 c -1.214,1.373 -2.363,2.396 -3.442,3.06 -1.977,1.133 -3.752,1.794 -5.324,1.981 -0.573,0.176 -2.8,0.263 -6.684,0.263 h -1.615 v -5.606 h 4.818 c 2.626,0 4.647,-0.577 6.063,-1.739 0.773,-0.493 1.481,-1.213 2.122,-2.16 1.026,-1.644 1.54,-3.311 1.54,-5.006 0,-1.679 -0.593,-3.409 -1.784,-5.18 -0.97,-1.404 -2.506,-2.455 -4.598,-3.163 -0.788,-0.255 -1.903,-0.382 -3.343,-0.382 h -4.818 v -5.602 h 4.198 c 3.346,0 5.828,0.414 7.443,1.241 3.482,1.532 5.985,4.026 7.504,7.484 0.773,1.775 1.162,3.661 1.162,5.662 C 3.242,-5.729 2.16,-2.682 0,0"
             style="fill:#c1272d;fill-opacity:1;fill-rule:nonzero;stroke:none"
             id="path356" />
        </g>
      </g>
    </g>
  </g>
</svg>
